<svg width="255" height="51.529" xmlns="http://www.w3.org/2000/svg" xml:space="preserve" version="1.1">

 <g>
  <title>Layer 1</title>
  <g id="svg_1">
   <path id="svg_2" fill="#ED8F20" d="m36.486,12.899l-5.089,-0.419l1.884,-4.746c0.308,-0.775 0.696,-1.499 1.139,-2.177c-2.955,-1.3 -6.219,-2.027 -9.655,-2.027c-13.255,0 -24,10.745 -24,24s10.745,24 24,24s24,-10.745 24,-24c0,-6.059 -2.25,-11.59 -5.954,-15.813c-1.922,0.926 -4.092,1.366 -6.325,1.182z"/>
   <circle id="svg_3" fill="#EF771D" r="2" cy="18.496" cx="38.537"/>
   <circle id="svg_4" fill="#EF771D" r="2" cy="29.651" cx="43.857"/>
   <circle id="svg_5" fill="#EF771D" r="2" cy="23.496" cx="43.537"/>
   <circle id="svg_6" fill="#EF771D" r="2" cy="27.529" cx="37.493"/>
   <circle id="svg_7" fill="#EF771D" r="2" cy="34.496" cx="38.537"/>
   <circle id="svg_8" fill="#EF771D" r="2" cy="10.496" cx="20.537"/>
   <circle id="svg_9" fill="#EF771D" r="2" cy="13.496" cx="13.537"/>
   <g id="svg_10">
    <path id="svg_11" fill="#ED8F20" d="m27.765,11.529c0,0 4.25,0.7 5.4,3.6"/>
    <path id="svg_12" fill="#9B6026" d="m33.165,16.13c-0.397,0 -0.773,-0.239 -0.93,-0.632c-0.925,-2.331 -4.599,-2.976 -4.635,-2.982c-0.544,-0.092 -0.912,-0.606 -0.821,-1.151c0.09,-0.543 0.603,-0.912 1.147,-0.822c0.197,0.032 4.824,0.831 6.168,4.218c0.203,0.513 -0.048,1.095 -0.561,1.298c-0.12,0.048 -0.245,0.071 -0.368,0.071z"/>
   </g>
   <g id="svg_13">
    <path id="svg_14" fill="#ED8F20" d="m28.365,14.529c1.037,-1.14 2.345,-2.025 3.787,-2.567"/>
    <path id="svg_15" fill="#9B6026" d="m28.364,15.529c-0.24,0 -0.481,-0.086 -0.673,-0.26c-0.408,-0.372 -0.438,-1.004 -0.066,-1.413c1.142,-1.255 2.585,-2.233 4.176,-2.831c0.517,-0.192 1.093,0.067 1.288,0.584c0.193,0.517 -0.068,1.094 -0.585,1.288c-1.295,0.486 -2.471,1.283 -3.4,2.304c-0.198,0.218 -0.468,0.328 -0.74,0.328z"/>
   </g>
   <path id="svg_16" fill="#659C35" d="m50.765,0.46l-5.089,-0.419c-5.375,-0.442 -10.406,2.681 -12.395,7.693l-1.884,4.746l5.089,0.419c5.374,0.442 10.406,-2.681 12.395,-7.693l1.884,-4.746z"/>
   <path id="svg_17" fill="#88C057" d="m31.958,11.068l-0.561,1.413l0.718,0.059c6.258,-6.111 13.059,-8.117 13.803,-8.164l0.035,-0.559l0.413,0.413l0.158,-0.593l-0.444,-0.425c-0.598,-0.132 -7.583,1.797 -14.122,7.856z"/>
  </g>
  <text transform="matrix(1.99194 0 0 1.99194 7.00375 -49.6387)" stroke="#000" xml:space="preserve" text-anchor="start" font-family="Noto Sans JP" font-size="24" id="svg_18" y="45.26298" x="-1.75169" stroke-width="0" fill="#ffffff">Orange Shop</text>
 </g>
</svg>